<svg xmlns="http://www.w3.org/2000/svg" viewBox="182 368 100 118" width="100" height="118" class="info-ribbon__icon"><g fill="#00beb4"><path d="M211.878 387.647c-2.197-.709-4.033.082-4.878.572-.845-.49-2.682-1.282-4.878-.572-1.323.427-2.358 1.539-2.839 3.05-.621 1.95-.223 4.156 1.066 5.9a5.66 5.66 0 0 1 1.002 2.21c.077.365.143.768.198 1.196.173 1.348.429 2.436.762 3.233.439 1.05 1.034 1.62 1.769 1.694.045.005.091.007.136.007.75 0 1.352-.609 1.789-1.809.29-.798.519-1.862.643-2.995.056-.509.18-.936.352-1.214.172.278.296.705.352 1.214.124 1.134.353 2.197.643 2.995.437 1.2 1.039 1.809 1.789 1.809.045 0 .09-.002.136-.007.734-.074 1.329-.644 1.769-1.694.333-.797.59-1.885.762-3.233.055-.428.121-.831.198-1.196a5.676 5.676 0 0 1 1.004-2.213c1.287-1.744 1.685-3.949 1.064-5.899-.482-1.51-1.516-2.621-2.839-3.048zm-7.722 15.457c-.23-.32-.659-1.243-.925-3.319a17.253 17.253 0 0 0-.221-1.331 7.367 7.367 0 0 0-1.301-2.877c-.962-1.303-1.266-2.932-.811-4.358.312-.98.947-1.689 1.742-1.945.413-.134.833-.2 1.257-.2.479 0 .963.085 1.448.256.688.242 1.128.578 1.131.58l.302.238c.13.102.312.102.442 0l.301-.236c.004-.003.445-.34 1.134-.582.914-.322 1.824-.34 2.705-.056.795.257 1.429.965 1.741 1.944.454 1.426.152 3.055-.81 4.357a7.382 7.382 0 0 0-1.302 2.879c-.086.409-.16.857-.221 1.331-.266 2.076-.694 2.998-.925 3.319a3.617 3.617 0 0 1-.305-.706c-.221-.659-.399-1.53-.5-2.452-.094-.858-.328-1.557-.697-2.08-.308-.437-.809-.697-1.341-.697s-1.033.261-1.341.697c-.368.522-.603 1.222-.697 2.08-.101.922-.278 1.793-.5 2.452a3.603 3.603 0 0 1-.306.706z"></path><path d="M229.755 392.693c-.826-2.291-1.607-4.456-1.661-6.433-.058-2.088.718-3.84 2.439-5.516a.945.945 0 0 0 .128-1.197l-5.97-9.019a.929.929 0 0 0-1.236-.297c-.024.014-2.464 1.39-5.656 1.845-4.179.596-7.572-.627-10.085-3.636a.932.932 0 0 0-1.428 0c-2.502 2.995-5.877 4.221-10.031 3.644-3.201-.444-5.687-1.839-5.711-1.852a.93.93 0 0 0-1.236.297l-5.97 9.019a.945.945 0 0 0 .128 1.197c1.721 1.675 2.497 3.428 2.439 5.516-.055 1.977-.835 4.142-1.661 6.433-1.306 3.623-2.787 7.73-2.047 12.573.611 4.002 2.265 7.027 5.055 9.245 2.433 1.935 5.429 3.04 8.327 4.107 4.284 1.579 8.33 3.071 10.614 7.02a.93.93 0 0 0 1.612 0c2.283-3.949 6.329-5.441 10.613-7.02 2.898-1.068 5.895-2.173 8.327-4.107 2.79-2.218 4.444-5.243 5.055-9.245.742-4.845-.739-8.951-2.045-12.574zm.203 12.287c-1.195 7.825-6.53 9.792-12.18 11.874-3.983 1.469-8.09 2.983-10.778 6.611-2.689-3.628-6.795-5.142-10.779-6.611-5.649-2.082-10.984-4.049-12.18-11.874-.667-4.368.667-8.068 1.957-11.646 1.676-4.648 3.262-9.048-.689-13.377l5.093-7.695c1.055.497 3.086 1.325 5.537 1.674 4.41.629 8.212-.578 11.06-3.496 2.848 2.918 6.65 4.125 11.06 3.496 2.451-.349 4.483-1.177 5.537-1.674l5.093 7.695c-3.952 4.329-2.365 8.729-.689 13.377 1.291 3.578 2.625 7.278 1.958 11.646z"></path><path d="M225.73 380.335a.944.944 0 0 0-.01-1.026l-2.514-3.798a.929.929 0 0 0-1.072-.37c-2.144.722-4.265 1.088-6.304 1.088-3.107 0-5.898-.857-8.295-2.548a.926.926 0 0 0-1.07 0c-2.398 1.691-5.188 2.548-8.295 2.548-2.039 0-4.159-.366-6.304-1.088a.928.928 0 0 0-1.072.369l-2.514 3.799a.942.942 0 0 0-.01 1.026c2.973 4.693 1.243 9.492-.284 13.726-1.254 3.479-2.439 6.766-1.854 10.595.958 6.275 4.55 7.888 10.817 10.198 3.266 1.204 6.643 2.449 9.445 4.862a.93.93 0 0 0 1.212 0c2.803-2.412 6.179-3.657 9.446-4.862 6.266-2.31 9.858-3.923 10.817-10.198.585-3.83-.6-7.116-1.855-10.595-1.527-4.234-3.257-9.033-.284-13.726zm.294 24.035c-.802 5.251-3.687 6.534-9.615 8.72-2.731 1.006-5.766 2.128-8.477 4.011v-9.975a.937.937 0 0 0-.933-.94.937.937 0 0 0-.933.94v9.975c-2.71-1.883-5.746-3.004-8.478-4.012-5.927-2.185-8.811-3.468-9.614-8.719-.388-2.535.15-4.906.941-7.314h3.159c.515 0 .933-.42.933-.94a.937.937 0 0 0-.933-.94h-2.506l.171-.475c1.54-4.27 3.444-9.551.421-14.849l1.796-2.712c2.104.642 4.191.966 6.213.966 2.884 0 5.533-.662 7.897-1.969v8.94c0 .519.418.94.933.94.515 0 .933-.42.933-.94v-8.94c2.364 1.307 5.013 1.969 7.897 1.969 2.022 0 4.109-.325 6.213-.966l1.796 2.712c-3.023 5.298-1.118 10.579.421 14.849l.171.475h-2.506a.937.937 0 0 0-.933.94c0 .519.418.94.933.94h3.159c.791 2.408 1.329 4.779.941 7.314z"></path></g></svg>
