<svg id="Слой_1" data-name="Слой 1" xmlns="http://www.w3.org/2000/svg" viewBox="0 0 26 26"><defs><style>.cls-1{fill:#b3a281;}</style></defs><title>Locations</title><path class="cls-1" d="M13,25.12a1,1,0,0,1-.65-.24c-1-.84-9.6-8.34-9.6-13.76a10.25,10.25,0,0,1,20.5,0c0,5.42-8.62,12.92-9.6,13.76a1,1,0,0,1-.65.24ZM13,2.88a8.26,8.26,0,0,0-8.25,8.25c0,3.51,5.46,9.15,8.25,11.67,2.79-2.52,8.25-8.16,8.25-11.67A8.26,8.26,0,0,0,13,2.88Z"/><path class="cls-1" d="M13,16.13a5,5,0,1,1,5-5,5,5,0,0,1-5,5Zm0-8a3,3,0,1,0,3,3,3,3,0,0,0-3-3Z"/></svg>