<svg id="Слой_1" data-name="Слой 1" xmlns="http://www.w3.org/2000/svg" viewBox="0 0 200 70"><defs><style>.cls-1{fill:#c47073;}.cls-2{fill:#e3d3c3;}.cls-3{opacity:0.4;}</style></defs><title>Logo</title><path class="cls-1" d="M189.35,22.95A4.32,4.32,0,0,0,186,21.59a4.52,4.52,0,0,0-3.59,1.54,3.4,3.4,0,0,0-3.11-1.54,4.1,4.1,0,0,0-3.39,1.52V21.94h-4.61V34.4h4.61V27.87q0-1.84,1.47-1.84,1.27,0,1.27,1.42v7h4.61V27.87q0-1.84,1.47-1.84Q186,26,186,27.44v7h4.61V26.82A5.6,5.6,0,0,0,189.35,22.95Z"/><path class="cls-2" d="M44.3,19.48a18.87,18.87,0,0,0-3.77.07l-1.58.23a39.76,39.76,0,0,0-8.57,2.56,16.55,16.55,0,0,0-2.89,1.45,20.86,20.86,0,0,0,11.62,3.4c7.33,0,10.52-1.48,10.54-1.45-.89-1.6-1.76-3.22-2.69-4.8A3.35,3.35,0,0,0,44.3,19.48Z"/><path class="cls-2" d="M38.76,19a4.31,4.31,0,0,0,.57-.08.71.71,0,0,0,.38-.16c.13-.18-.12-.53-.2-.67a1.77,1.77,0,0,1-.18-1.27c.15-.66.27-1.34.4-2a2.64,2.64,0,0,0,.05-.47c0-.69-.21-.9-.89-.79a21.81,21.81,0,0,0-3.66.92l-.45.13-.13.07a26.27,26.27,0,0,0-4.15,2.05c-.34.21-.65.45-1,.68a13.89,13.89,0,0,0-2,2.2,8.51,8.51,0,0,0-1.2,3.59,41.68,41.68,0,0,1,10.36-3.81A19.31,19.31,0,0,1,38.76,19Z"/><path class="cls-2" d="M20.16,29.48c-.87.76-1.77,1.48-2.65,2.22l-.78.65-2.64,2.22s6.31-2.18,9.55-3.36l-2.84-2C20.55,29,20.33,29.33,20.16,29.48Z"/><path class="cls-2" d="M53.63,12.87l-.27-.65a2.09,2.09,0,0,0-.14-.44,1.23,1.23,0,0,1,0-1.27c.36-.73.63-1.51.94-2.26A9.24,9.24,0,0,1,53,8.55a3.68,3.68,0,0,0-3,2.32,5.82,5.82,0,0,0,.2,3.75,14,14,0,0,1,.85,3.18A4.71,4.71,0,0,1,51,19.43a2.2,2.2,0,0,1-2.11,1.73,3,3,0,0,1-.58,0c-.47-.05-.45.13-.25.46.31.53.59,1.07.92,1.59a2.51,2.51,0,0,0,1.59,1.23A2.61,2.61,0,0,0,52.68,24a3,3,0,0,0,.79-1.16,7.36,7.36,0,0,0,.47-2.44C54.06,17.89,53.51,15.39,53.63,12.87Z"/><path class="cls-1" d="M25.88,33.4a20.08,20.08,0,0,1-3.33,2.14.65.65,0,0,0-.28.31,4.09,4.09,0,0,1-.93,1.07Q18.39,39.46,15.47,42a1.78,1.78,0,0,1-1.19.52c-.23,0-.46,0-.69.07l-.23,0-.57.08,0,.07.58.3c.22.11.2.19,0,.29-.46.23-.91.48-1.37.7a1,1,0,0,0-.63.71c-.07.28-.2.54-.34.91l4-1.88.07-.08a4,4,0,0,1,1-1.33c2-1.72,4.07-3.46,6.11-5.19a2.5,2.5,0,0,1,.51-.35,2.21,2.21,0,0,0,1.23-1.1c.06-.14.19-.2.31-.29l2.54-1.88.27-.22A.85.85,0,0,0,25.88,33.4Z"/><path class="cls-1" d="M62.79,3.56c-.34.2-.68.38-1,.56l-1.54.83L57.14,6.61l-3,1.63c-.31.76-.64,1.51-1,2.24a1.68,1.68,0,0,0,0,1.42,5.81,5.81,0,0,1,.44,1h0l.74-1a33.69,33.69,0,0,1,4-4.16Q59.6,6.53,60.9,5.4c.78-.67,1.59-1.32,2.34-2a.14.14,0,0,0,0-.06.78.78,0,0,0-.25.1Z"/><path class="cls-1" d="M150.54,21.59a4.52,4.52,0,0,0-3.59,1.54,3.4,3.4,0,0,0-3.11-1.54,4.1,4.1,0,0,0-3.39,1.52V21.94h-4.61V34.4h4.61V27.87q0-1.84,1.47-1.84,1.27,0,1.27,1.42v7h4.61V27.87q0-1.84,1.47-1.84,1.27,0,1.27,1.42v7h4.61V26.82a5.6,5.6,0,0,0-1.22-3.87A4.32,4.32,0,0,0,150.54,21.59Z"/><path class="cls-1" d="M163.12,21.59a6.56,6.56,0,0,0-4.76,1.89,6.6,6.6,0,0,0,0,9.37,6.91,6.91,0,0,0,9.5,0,6.62,6.62,0,0,0,0-9.37A6.56,6.56,0,0,0,163.12,21.59Zm1.51,8.16a2.17,2.17,0,0,1-3,0,2.43,2.43,0,0,1,0-3.16,2.17,2.17,0,0,1,3,0,2.43,2.43,0,0,1,0,3.16Z"/><rect class="cls-3" x="9.61" y="51.67" width="180.96" height="0.5"/><path d="M46.75,42.54c.57.21.57.19.47-.41A17,17,0,0,1,47,35.68a41.76,41.76,0,0,0,3,6.74,3.8,3.8,0,0,0,.89,1.18,5.56,5.56,0,0,0,2.82.92c1.16.14,5.49.74,14.1-.56l-1.49-.91q-.78-.49-1.53-1A54.37,54.37,0,0,1,53.09,30.59c-1-1.34-3.44-4.84-3.44-4.84l-3.25.43-8.4-.1A51.27,51.27,0,0,1,27.49,23.8a38.54,38.54,0,0,0-6.28,4.64c-.28.29,0,.39.16.51,1.47,1,2.92,2,4.42,3a105.59,105.59,0,0,0,14.6,8s.5.31.47-.12a26.81,26.81,0,0,1,0-3.64s1.19,3.18,1.83,4.51a.87.87,0,0,0,.52.47Z"/><path d="M26.47,23l.06-.08a2,2,0,0,0,.23-.72A7.75,7.75,0,0,1,27.66,20a19,19,0,0,1,1.84-2.63l-.65.42A31.33,31.33,0,0,0,24,21.89a22.9,22.9,0,0,0-3.84,5q-.19.35-.35.7A40.6,40.6,0,0,1,26,23.32,1.5,1.5,0,0,0,26.47,23Z"/><path d="M70.69,30.16a3.15,3.15,0,0,1-3.14-2.22l-4.26,2.47a5.77,5.77,0,0,0,2.54,3.2,8.78,8.78,0,0,0,4.73,1.18,7.76,7.76,0,0,0,5-1.46,5,5,0,0,0,1.83-4.12A5.41,5.41,0,0,0,76.93,27a3.82,3.82,0,0,0-1.31-1.57A9.16,9.16,0,0,0,74,24.44a20.77,20.77,0,0,0-2-.71A14.41,14.41,0,0,1,69.65,23a.93.93,0,0,1-.59-.85.8.8,0,0,1,.34-.66,1.58,1.58,0,0,1,1-.26A2.49,2.49,0,0,1,72.78,23l4.14-2.42a6.17,6.17,0,0,0-2.58-3,7.61,7.61,0,0,0-4-1,6.51,6.51,0,0,0-4.55,1.57,5.12,5.12,0,0,0-1.73,4q0,4,5.21,5.61l1,.27.91.26.61.24a1,1,0,0,1,.47.35.84.84,0,0,1,.12.45Q72.38,30.16,70.69,30.16Z"/><polygon points="85.91 34.4 87.46 28.54 89 34.4 93.68 34.4 97.3 21.94 92.44 21.94 90.99 28.84 89.2 21.94 85.71 21.94 83.92 28.84 82.47 21.94 77.61 21.94 81.23 34.4 85.91 34.4"/><path d="M104.25,21.59a6.45,6.45,0,0,0-6.63,6.63,6.21,6.21,0,0,0,1.93,4.67,7.08,7.08,0,0,0,5.12,1.86,6.84,6.84,0,0,0,5.28-2l-3-2.54a3.27,3.27,0,0,1-2.12.8,2.53,2.53,0,0,1-2.54-1.25h8.27a6.63,6.63,0,0,0,.2-1.62,6.38,6.38,0,0,0-1.83-4.67A6.28,6.28,0,0,0,104.25,21.59Zm-2,5.18a2.11,2.11,0,0,1,2.17-1.5,1.9,1.9,0,0,1,2,1.5Z"/><path d="M118.67,34.74a6.84,6.84,0,0,0,5.28-2l-3-2.54a3.27,3.27,0,0,1-2.12.8,2.53,2.53,0,0,1-2.54-1.25h8.27a6.63,6.63,0,0,0,.2-1.62,6.38,6.38,0,0,0-1.83-4.67,6.28,6.28,0,0,0-4.67-1.86,6.45,6.45,0,0,0-6.63,6.63,6.21,6.21,0,0,0,1.93,4.67A7.08,7.08,0,0,0,118.67,34.74Zm-.3-9.47a1.9,1.9,0,0,1,2,1.5h-4.18A2.11,2.11,0,0,1,118.37,25.28Z"/><path d="M126.87,29.26q0,3.24,1.66,4.46t5.57.67V30.26a11.89,11.89,0,0,1-1.43,0,1.32,1.32,0,0,1-.88-.34,1.25,1.25,0,0,1-.3-.92V26.32h2.62V21.94h-2.62V18.45l-4.61,1.37v2.12h-1.74v4.38h1.74Z"/><polygon points="15.77 56.8 14.76 56.8 11.26 60.32 11.26 56.8 10.49 56.8 10.49 64.5 11.26 64.5 11.26 60.77 14.87 64.5 15.88 64.5 12.07 60.54 15.77 56.8"/><path d="M18.83,58.87a2.81,2.81,0,0,0-2.05.83,2.92,2.92,0,0,0,0,4.1,2.95,2.95,0,0,0,4.1,0,2.92,2.92,0,0,0,0-4.1A2.81,2.81,0,0,0,18.83,58.87Zm1.54,4.43a2.19,2.19,0,0,1-3.08,0,2.22,2.22,0,0,1,0-3.09,2.19,2.19,0,0,1,3.08,0,2.22,2.22,0,0,1,0,3.09Z"/><polygon points="26.45 59 22.93 59 22.93 64.5 23.66 64.5 23.66 59.7 26.45 59.7 26.45 59"/><path d="M31.62,59H27.68v2.72a3.37,3.37,0,0,1-.56,2.08h-.67V66h.73V64.5h4.49V66h.73V63.8h-.77Zm-.73,4.8H28a4.65,4.65,0,0,0,.41-2.08v-2h2.49Z"/><path d="M38,60.08a2.46,2.46,0,0,0-2.22-1.21,2.72,2.72,0,0,0-2,.84,2.94,2.94,0,0,0,0,4.09,2.72,2.72,0,0,0,2,.84A2.46,2.46,0,0,0,38,63.42V64.5h.73V59H38Zm-.63,3.22a2.19,2.19,0,0,1-3.08,0,2.22,2.22,0,0,1,0-3.09,2.19,2.19,0,0,1,3.08,0,2.22,2.22,0,0,1,0,3.09Z"/><polygon points="43.02 64.5 43.74 64.5 43.74 59.7 46.91 59.7 46.91 64.5 47.63 64.5 47.63 59 43.02 59 43.02 64.5"/><path d="M51.74,58.87a2.81,2.81,0,0,0-2.05.83,2.92,2.92,0,0,0,0,4.1,2.95,2.95,0,0,0,4.1,0,2.92,2.92,0,0,0,0-4.1A2.81,2.81,0,0,0,51.74,58.87Zm1.54,4.43a2.19,2.19,0,0,1-3.08,0,2.22,2.22,0,0,1,0-3.09,2.19,2.19,0,0,1,3.08,0,2.22,2.22,0,0,1,0,3.09Z"/><path d="M60.24,59H56.3v2.72a3.37,3.37,0,0,1-.56,2.08h-.67V66h.73V64.5h4.49V66H61V63.8h-.77Zm-.73,4.8H56.62A4.65,4.65,0,0,0,57,61.72v-2h2.49Z"/><path d="M68.52,63.64a2.17,2.17,0,0,1-3.27-1.89,2.11,2.11,0,0,1,.63-1.54,2.08,2.08,0,0,1,1.54-.63,2.13,2.13,0,0,1,1.11.29,1.72,1.72,0,0,1,.71.79l.59-.34a2.33,2.33,0,0,0-.95-1.05,2.9,2.9,0,1,0-1.46,5.37,2.85,2.85,0,0,0,1.46-.38,2.54,2.54,0,0,0,1-1l-.6-.35A2.09,2.09,0,0,1,68.52,63.64Z"/><path d="M73.42,58.87a2.76,2.76,0,0,0-2.07.83,2.88,2.88,0,0,0,2.12,4.94,3,3,0,0,0,1.43-.34,2.61,2.61,0,0,0,1-.92L75.26,63a1.75,1.75,0,0,1-.69.68,2.17,2.17,0,0,1-1.08.26A2.26,2.26,0,0,1,72,63.44a2,2,0,0,1-.71-1.33h4.83c0-.15,0-.26,0-.34a3,3,0,0,0-.75-2A2.5,2.5,0,0,0,73.42,58.87ZM71.3,61.41a2.06,2.06,0,0,1,2.12-1.84,1.94,1.94,0,0,1,1.31.48,2,2,0,0,1,.67,1.35Z"/><path d="M80.25,58.87A2.46,2.46,0,0,0,78,60.08V59H77.3v7.7H78V63.42a2.46,2.46,0,0,0,2.22,1.21,2.73,2.73,0,0,0,2-.84,2.94,2.94,0,0,0,0-4.09A2.73,2.73,0,0,0,80.25,58.87Zm1.49,4.43a2.19,2.19,0,0,1-3.08,0,2.22,2.22,0,0,1,0-3.09,2.19,2.19,0,0,1,3.08,0,2.22,2.22,0,0,1,0,3.09Z"/><path d="M88.7,59H84.76v2.72a3.37,3.37,0,0,1-.56,2.08h-.67V66h.73V64.5h4.49V66h.73V63.8H88.7ZM88,63.8H85.08a4.65,4.65,0,0,0,.41-2.08v-2H88Z"/><polygon points="95.08 59 94.35 59 94.35 63.8 91.29 63.8 91.29 59 90.57 59 90.57 64.5 95.23 64.5 95.23 65.97 95.96 65.97 95.96 63.8 95.08 63.8 95.08 59"/><path d="M99.38,58.87a2.76,2.76,0,0,0-2.07.83,2.88,2.88,0,0,0,2.12,4.94,3,3,0,0,0,1.43-.34,2.61,2.61,0,0,0,1-.92l-.64-.37a1.75,1.75,0,0,1-.69.68,2.17,2.17,0,0,1-1.08.26A2.26,2.26,0,0,1,98,63.44a2,2,0,0,1-.71-1.33h4.83c0-.15,0-.26,0-.34a3,3,0,0,0-.75-2A2.5,2.5,0,0,0,99.38,58.87Zm-2.12,2.54a2.06,2.06,0,0,1,2.12-1.84,1.94,1.94,0,0,1,1.31.48,2.05,2.05,0,0,1,.67,1.35Z"/><polygon points="105.96 62.01 104.1 59 103.26 59 103.26 64.5 103.99 64.5 103.99 60.11 105.91 63.23 106 63.23 107.93 60.11 107.93 64.5 108.65 64.5 108.65 59 107.82 59 105.96 62.01"/><path d="M116.51,61.74a4,4,0,0,1-1.6.32,1.69,1.69,0,0,1-1.1-.3,1.23,1.23,0,0,1-.36-1V59h-.73v1.76a1.87,1.87,0,0,0,.57,1.48,2.41,2.41,0,0,0,1.64.5,3.4,3.4,0,0,0,1.57-.33V64.5h.73V59h-.73Z"/><path d="M121,63.61,118.88,59h-.77l2.46,5.53-.14.34q-.52,1.25-1.51,1.14v.68a1.82,1.82,0,0,0,1.31-.41,3,3,0,0,0,.91-1.28l2.35-6h-.77Z"/><polygon points="130.59 59 129.71 59 127.57 61.44 127.57 59 126.85 59 126.85 61.44 124.71 59 123.83 59 126.19 61.64 123.72 64.5 124.6 64.5 126.85 61.85 126.85 64.5 127.57 64.5 127.57 61.85 129.82 64.5 130.69 64.5 128.23 61.64 130.59 59"/><path d="M133.81,58.87a2.8,2.8,0,0,0-2.05.83,2.92,2.92,0,0,0,0,4.1,2.95,2.95,0,0,0,4.1,0,2.92,2.92,0,0,0,0-4.1A2.8,2.8,0,0,0,133.81,58.87Zm1.54,4.43a2.19,2.19,0,0,1-3.08,0,2.22,2.22,0,0,1,0-3.09,2.19,2.19,0,0,1,3.08,0,2.22,2.22,0,0,1,0,3.09Z"/><polygon points="138.64 63.23 138.64 59 137.91 59 137.91 64.5 138.53 64.5 141.81 60.27 141.81 64.5 142.53 64.5 142.53 59 141.92 59 138.64 63.23"/><rect x="138.79" y="57.48" width="2.86" height="0.64"/><path d="M149.77,58.87a2.46,2.46,0,0,0-2.22,1.21V59h-.73v7.7h.73V63.42a2.46,2.46,0,0,0,2.22,1.21,2.72,2.72,0,0,0,2-.84,2.94,2.94,0,0,0,0-4.09A2.72,2.72,0,0,0,149.77,58.87Zm1.49,4.43a2.19,2.19,0,0,1-3.08,0,2.22,2.22,0,0,1,0-3.09,2.19,2.19,0,0,1,3.08,0,2.22,2.22,0,0,1,0,3.09Z"/><path d="M156.36,58.87a2.76,2.76,0,0,0-2.07.83,3,3,0,0,0,0,4.13,2.86,2.86,0,0,0,2.11.81,3,3,0,0,0,1.43-.34,2.61,2.61,0,0,0,1-.92L158.2,63a1.75,1.75,0,0,1-.69.68,2.17,2.17,0,0,1-1.08.26,2.26,2.26,0,0,1-1.48-.49,2,2,0,0,1-.71-1.33h4.83c0-.15,0-.26,0-.34a3,3,0,0,0-.75-2A2.5,2.5,0,0,0,156.36,58.87Zm-2.12,2.54a2.06,2.06,0,0,1,2.12-1.84,1.94,1.94,0,0,1,1.31.48,2,2,0,0,1,.67,1.35Z"/><path d="M162.84,59.5a3,3,0,0,0-1.13.24,2.22,2.22,0,0,0-1,.73,2,2,0,0,1,.52-.93,3.74,3.74,0,0,1,1.13-.69l.52-.22.55-.24a4.78,4.78,0,0,0,.45-.24,2,2,0,0,0,.43-.31,1.92,1.92,0,0,0,.27-.37,1.48,1.48,0,0,0,.18-.5l-.57-.33a1.07,1.07,0,0,1-.52.83,3.83,3.83,0,0,1-.45.26l-.6.26-.64.29a3.69,3.69,0,0,0-1.69,1.37,4.52,4.52,0,0,0-.42,2.16,2.75,2.75,0,0,0,.79,2,2.9,2.9,0,0,0,3.91.05,2.44,2.44,0,0,0,.76-1.84,2.5,2.5,0,0,0-.72-1.84A2.47,2.47,0,0,0,162.84,59.5Zm1.26,3.89a2,2,0,0,1-1.41.52,2,2,0,0,1-1.42-.54,1.8,1.8,0,0,1-.58-1.37,1.56,1.56,0,0,1,.64-1.3,2.27,2.27,0,0,1,1.42-.49,1.88,1.88,0,0,1,1.39.52,1.81,1.81,0,0,1,.52,1.34A1.74,1.74,0,0,1,164.1,63.38Z"/><path d="M169,58.87a2.76,2.76,0,0,0-2.07.83,2.83,2.83,0,0,0-.8,2.06,2.8,2.8,0,0,0,.81,2.07,2.85,2.85,0,0,0,2.11.81,3,3,0,0,0,1.43-.34,2.61,2.61,0,0,0,1-.92l-.64-.37a1.75,1.75,0,0,1-.69.68,2.16,2.16,0,0,1-1.08.26,2.27,2.27,0,0,1-1.48-.49,2,2,0,0,1-.71-1.33h4.83c0-.15,0-.26,0-.34a3,3,0,0,0-.75-2A2.5,2.5,0,0,0,169,58.87Zm-2.12,2.54A2.06,2.06,0,0,1,169,59.57a1.94,1.94,0,0,1,1.31.48,2,2,0,0,1,.67,1.35Z"/><polygon points="176.8 61.4 173.63 61.4 173.63 59 172.9 59 172.9 64.5 173.63 64.5 173.63 62.1 176.8 62.1 176.8 64.5 177.52 64.5 177.52 59 176.8 59 176.8 61.4"/><path d="M181.63,58.87a2.8,2.8,0,0,0-2.05.83,2.92,2.92,0,0,0,0,4.1,2.95,2.95,0,0,0,4.1,0,2.92,2.92,0,0,0,0-4.1A2.81,2.81,0,0,0,181.63,58.87Zm1.54,4.43a2.19,2.19,0,0,1-3.08,0,2.22,2.22,0,0,1,0-3.09,2.19,2.19,0,0,1,3.08,0,2.22,2.22,0,0,1,0,3.09Z"/><polygon points="187.22 61.64 190.06 59 189.07 59 186.45 61.43 186.45 59 185.73 59 185.73 64.5 186.45 64.5 186.45 61.85 189.2 64.5 190.17 64.5 187.22 61.64"/></svg>