<svg id="Слой_1" data-name="Слой 1" xmlns="http://www.w3.org/2000/svg" viewBox="0 0 26 26"><defs><style>.cls-1{fill:#b3a281;}</style></defs><title>Mail</title><path class="cls-1" d="M22.08,21.3H3.92a2.36,2.36,0,0,1-2.36-2.36V7.06A2.36,2.36,0,0,1,3.92,4.7H22.08a2.36,2.36,0,0,1,2.36,2.36V18.94a2.36,2.36,0,0,1-2.36,2.36ZM3.92,6.7a.36.36,0,0,0-.36.36V18.94a.36.36,0,0,0,.36.36H22.08a.36.36,0,0,0,.36-.36V7.06a.36.36,0,0,0-.36-.36Z"/><path class="cls-1" d="M22.08,20.8H3.92a1.87,1.87,0,0,1-1.73-1.2A.5.5,0,0,1,2.32,19l7.09-6.32a.5.5,0,0,1,.67.75l-6.79,6a.86.86,0,0,0,.63.28H22.08a.86.86,0,0,0,.63-.28L15.85,13.4a.5.5,0,0,1,.67-.75L23.68,19a.5.5,0,0,1,.13.55,1.86,1.86,0,0,1-1.73,1.2Z"/><path class="cls-1" d="M13,16.31a.5.5,0,0,1-.33-.13L2.32,7a.5.5,0,0,1-.13-.55A1.87,1.87,0,0,1,3.92,5.2H22.08a1.86,1.86,0,0,1,1.73,1.2.5.5,0,0,1-.13.55L13.33,16.18a.49.49,0,0,1-.33.13ZM3.29,6.48,13,15.14l9.71-8.66a.86.86,0,0,0-.63-.28H3.92a.85.85,0,0,0-.63.28Z"/></svg>