<svg id="Слой_1" data-name="Слой 1" xmlns="http://www.w3.org/2000/svg" viewBox="0 0 26 26"><defs><style>.cls-1{fill:#c47073;}</style></defs><title>Монтажная область 3</title><path class="cls-1" d="M5.29,15.79,5,20.19a1,1,0,0,0,1,1.06h.06l4.4-.26a1,1,0,0,0,.65-.29L24.25,7.59a1,1,0,0,0,0-1.41L20.11,2a1,1,0,0,0-1.41,0L5.58,15.14A1,1,0,0,0,5.29,15.79ZM19.4,4.15l2.72,2.72L21.06,7.94,18.33,5.22ZM7.27,16.29,17.63,5.93l2.72,2.72L10,19l-1,.06a2.21,2.21,0,0,0-1.8-1.86Z"/><path class="cls-1" d="M23.92,12.57a1,1,0,0,0-1,1V23.4H3.08V3.57h9.83a1,1,0,0,0,0-2H2.08a1,1,0,0,0-1,1V24.4a1,1,0,0,0,1,1H23.92a1,1,0,0,0,1-1V13.57A1,1,0,0,0,23.92,12.57Z"/></svg>